PathFileType	4	(X/Y/Z)	D:\TRACE\spotREDO_2-26-24\spot_justArm_Motion_2_5-v60.trc
DataRate	CameraRate	NumFrames	NumMarkers	Units	OrigDataRate	OrigDataStartFrame	OrigNumFrames
100.00	100.00	      21	9	mm	100.00	1	      7000
Frame#	Time	front left toe			Front right toe			aft left toe			aft right toe			Arm			FL body			FR body			AL Body			AR Body			
		X1	Y1	Z1	X2	Y2	Z2	X3	Y3	Z3	X4	Y4	Z4	X5	Y5	Z5	X6	Y6	Z6	X7	Y7	Z7	X8	Y8	Z8	X9	Y9	Z9	

1	0.000	-266.73892	18.18947	-128.27046	157.89308	20.31379	-133.36691	-301.40738	20.73421	466.45813	125.27468	24.37940	442.15509	-30.87687	1003.12750	-412.00333	-125.75347	544.95667	-250.52040	30.04004	549.78223	-244.22583	-170.53885	559.79181	632.55438	-22.83465	560.34155	640.19830	
2	0.010	-266.71664	18.19437	-128.25189	157.69933	20.22256	-133.54016	-301.40408	20.67187	466.43259	125.21267	24.33367	442.10638	-30.85619	1003.62177	-412.30377	-125.69353	544.91943	-250.45129	30.02042	549.76782	-244.16283	-170.54218	559.80853	632.59985	-22.91820	560.35071	640.25128	
3	0.020	-266.68042	18.16582	-128.27406	157.86969	20.20911	-133.47789	-301.32825	20.62843	466.46832	125.34557	24.37706	442.16077	-30.89166	1004.26996	-412.65884	-125.67285	544.93695	-250.38515	30.00284	549.74341	-244.08247	-170.51140	559.79712	632.63812	-22.91959	560.29407	640.32068	
4	0.030	-266.69730	18.18284	-128.23956	157.75107	20.24238	-133.45012	-301.33432	20.63661	466.46616	125.10727	24.26629	442.12192	-31.11288	1005.06085	-413.22186	-125.60513	544.90784	-250.30772	30.00232	549.71851	-244.00146	-171.02229	559.71442	632.32367	-22.93012	560.27075	640.36200	
5	0.040	-266.71234	18.18243	-128.22179	157.73244	20.12250	-133.53284	-301.34967	20.65232	466.46729	125.26643	24.33767	442.17123	-30.99924	1005.63660	-413.70892	-125.59476	544.87628	-250.28964	30.02208	549.71039	-243.93498	-170.59990	559.77435	632.68823	-22.90383	560.21332	640.38586	
6	0.050	-266.65930	18.14386	-128.26283	157.72781	20.17658	-133.51004	-301.33188	20.63179	466.46310	125.37022	24.39477	442.17343	-30.86412	1006.34949	-414.09064	-125.42583	544.82672	-250.12199	30.05442	549.68805	-243.84148	-170.61180	559.80396	632.70795	-22.89503	560.22766	640.44495	
7	0.060	-266.70895	18.20675	-128.23805	157.76994	20.18345	-133.46632	-301.32852	20.67267	466.45422	125.30003	24.36016	442.14075	-30.70941	1007.01184	-414.42917	-125.54466	544.90234	-250.19391	30.09072	549.69275	-243.76563	-170.60562	559.79956	632.74756	-22.98931	560.22003	640.51190	
8	0.070	-266.68988	18.24301	-128.24568	157.71730	20.21571	-133.46838	-301.37012	20.70603	466.48553	125.31839	24.37039	442.16003	-30.63111	1007.52979	-414.59995	-125.41644	544.83783	-250.03485	30.09890	549.73529	-243.72444	-170.59808	559.76154	632.77875	-23.02793	560.21954	640.51154	
9	0.080	-266.70810	18.24127	-128.23689	157.96695	20.33921	-133.29584	-301.39542	20.66663	466.47189	125.18319	24.31393	442.10519	-31.06296	1008.38385	-415.10959	-125.39165	544.82910	-250.01794	30.12464	549.72955	-243.62260	-170.60373	559.77728	632.81989	-23.04260	560.22601	640.60211	
10	0.090	-266.68710	18.20616	-128.26013	157.72568	20.20292	-133.46341	-301.42972	20.66447	466.42755	125.20916	24.35275	442.12488	-31.04965	1009.12622	-415.60538	-125.40592	544.88312	-249.99767	30.18322	549.71619	-243.58763	-170.62579	559.75220	632.88568	-23.07494	560.18762	640.65643	
11	0.100	-266.63882	18.19934	-128.24867	157.81219	20.25399	-133.42737	-301.36078	20.63372	466.45383	125.26376	24.33742	442.16043	-30.82438	1009.52722	-416.01212	-125.41485	544.87122	-249.93279	30.20666	549.74518	-243.53018	-170.63046	559.73218	632.93054	-23.04281	560.19745	640.69659	
12	0.110	-266.66684	18.21361	-128.22650	157.76103	20.16247	-133.48785	-301.35754	20.63542	466.44400	125.17288	24.30602	442.17343	-30.85791	1010.30322	-416.48813	-125.42531	544.87024	-249.94118	30.19737	549.75153	-243.49815	-170.62395	559.74377	632.96564	-23.06143	560.18774	640.75854	
13	0.120	-266.64264	18.24526	-128.24406	157.82262	20.25513	-133.41348	-301.40500	20.67341	466.44138	125.27140	24.36974	442.21579	-30.85199	1011.02753	-416.66476	-125.43446	544.91827	-249.90018	30.20865	549.74109	-243.41495	-170.57292	559.73523	633.03192	-23.00468	560.20282	640.79962	
14	0.130	-266.66528	18.22175	-128.20129	157.72151	20.21863	-133.47823	-301.37466	20.70150	466.45413	125.26038	24.32209	442.16754	-31.15919	1011.66412	-417.30536	-125.43168	544.89728	-249.86304	30.19801	549.74506	-243.39861	-171.01517	559.63849	632.70367	-23.00812	560.19708	640.83685	
15	0.140	-266.69971	18.22496	-128.24399	157.76672	20.20042	-133.46709	-301.38895	20.70388	466.44946	125.18166	24.31906	442.20065	-31.15792	1012.09497	-417.60336	-125.43240	544.91846	-249.83058	30.19360	549.74622	-243.34294	-170.55415	559.71423	633.10571	-23.03679	560.21234	640.89093	
16	0.150	-266.69849	18.22223	-128.21063	157.71556	20.14324	-133.53496	-301.42368	20.70049	466.47351	125.17625	24.30488	442.16522	-31.06281	1012.93048	-418.17999	-125.45919	544.92438	-249.76102	30.19433	549.74835	-243.30399	-170.58194	559.72021	633.13678	-23.00164	560.22369	640.91919	
17	0.160	-266.68097	18.21077	-128.24559	157.84225	20.32923	-133.38362	-301.35614	20.67010	466.45706	125.28604	24.35303	442.18405	-30.93817	1013.52521	-418.38235	-125.44086	544.90253	-249.68019	30.18413	549.75482	-243.30728	-170.54355	559.74414	633.20837	-22.95541	560.19580	640.94171	
18	0.170	-266.68710	18.21593	-128.21039	157.80223	20.28790	-133.39827	-301.36548	20.69620	466.46503	125.23051	24.30872	442.19638	-30.76001	1014.09833	-418.73587	-125.47470	544.91199	-249.63979	30.13456	549.76837	-243.25375	-170.55045	559.73871	633.23956	-23.01151	560.19196	641.01147	
19	0.180	-266.67609	18.20235	-128.20724	157.69868	20.12243	-133.49579	-301.37775	20.68407	466.51834	125.24467	24.31439	442.19318	-30.82282	1014.76093	-419.28552	-125.46281	544.90240	-249.62419	30.15582	549.77081	-243.18634	-170.53760	559.73151	633.30872	-22.92791	560.19501	641.07703	
20	0.190	-266.66690	18.21203	-128.21465	157.76184	20.23274	-133.41695	-301.38812	20.67770	466.53769	125.38586	24.34478	442.21402	-30.95047	1015.54767	-419.63583	-125.49399	544.91943	-249.53094	30.16956	549.74365	-243.12688	-170.50674	559.71460	633.34827	-22.97867	560.17444	641.12006	
21	0.200	-266.70993	18.22331	-128.21059	157.79358	20.18326	-133.40616	-301.36377	20.63049	466.49686	125.14596	24.28127	442.21808	-30.76689	1016.25366	-420.07645	-125.48200	544.90607	-249.52545	30.19528	549.75177	-243.08406	-170.54552	559.71338	633.42413	-22.95966	560.16528	641.19696	
